<?xml version="1.0" standalone="no"?>
<!DOCTYPE svg PUBLIC "-//W3C//DTD SVG 20010904//EN"
 "http://www.w3.org/TR/2001/REC-SVG-20010904/DTD/svg10.dtd">
<svg version="1.0" xmlns="http://www.w3.org/2000/svg"
 width="600.000000pt" height="600.000000pt" viewBox="0 0 600.000000 600.000000"
 preserveAspectRatio="xMidYMid meet">
<metadata>
Created by potrace 1.14, written by Peter Selinger 2001-2017
</metadata>
<g transform="translate(0.000000,600.000000) scale(0.100000,-0.100000)"
fill="#000000" stroke="none">
<path d="M2510 4938 c-16 -35 -122 -272 -235 -528 -114 -256 -215 -483 -225
-505 -10 -22 -120 -269 -245 -550 -125 -280 -237 -533 -250 -562 -13 -28 -96
-212 -183 -410 -88 -197 -181 -405 -207 -463 -26 -58 -53 -118 -60 -135 -7
-16 -27 -59 -43 -95 -16 -36 -41 -92 -55 -125 -14 -33 -44 -100 -66 -148 -23
-49 -41 -90 -41 -93 0 -2 -13 -32 -29 -66 -96 -208 -111 -242 -111 -249 0 -5
213 -9 473 -9 l474 0 18 43 c10 23 23 56 30 72 7 17 66 158 130 315 117 285
158 382 174 410 7 13 121 15 933 15 l925 0 78 -190 c43 -104 100 -244 128
-310 27 -66 65 -158 84 -205 19 -47 42 -100 50 -117 l15 -33 484 0 c266 0 484
2 484 5 0 5 -89 206 -315 710 -128 285 -492 1100 -632 1415 -80 179 -156 350
-170 380 -14 30 -54 120 -90 200 -35 80 -73 164 -83 186 -19 43 -98 217 -130
289 -10 22 -46 103 -80 180 -34 77 -71 160 -82 185 -11 25 -42 92 -67 150 -26
58 -67 149 -91 203 l-44 97 -458 0 -458 0 -30 -62z m544 -1003 c32 -77 63
-153 70 -170 8 -16 73 -174 146 -350 143 -347 147 -356 178 -430 86 -203 172
-418 169 -421 -2 -2 -285 -3 -630 -2 l-626 3 29 70 c24 58 257 619 293 705 5
14 11 30 13 35 3 10 263 635 284 684 6 13 12 22 14 20 2 -2 29 -67 60 -144z"/>
</g>
</svg>
